<?xml version="1.0" standalone="no"?>
<!DOCTYPE svg PUBLIC "-//W3C//DTD SVG 20010904//EN"
 "http://www.w3.org/TR/2001/REC-SVG-20010904/DTD/svg10.dtd">
<svg version="1.0" xmlns="http://www.w3.org/2000/svg"
 width="900.000000pt" height="900.000000pt" viewBox="0 0 900.000000 900.000000"
 preserveAspectRatio="xMidYMid meet">
<metadata>
Created by potrace 1.14, written by Peter Selinger 2001-2017
</metadata>
<g transform="translate(0.000000,900.000000) scale(0.100000,-0.100000)"
fill="#000000" stroke="none">
<path d="M4597 8994 c-1 -1 -76 -5 -167 -9 -91 -4 -185 -8 -210 -10 -179 -13
-268 -22 -325 -31 -38 -6 -131 -22 -170 -30 -32 -6 -35 -7 -75 -17 -14 -4 -36
-9 -50 -11 -89 -16 -430 -117 -525 -156 -11 -5 -74 -30 -140 -56 -152 -59
-423 -191 -585 -284 -747 -431 -1383 -1081 -1795 -1835 -41 -74 -145 -283
-145 -289 0 -2 -15 -37 -34 -78 -115 -248 -212 -568 -240 -793 -17 -131 -33
-355 -41 -580 -3 -82 -8 -202 -10 -265 -8 -207 -24 -1034 -40 -2130 -12 -809
-15 -1002 -20 -1405 -3 -236 -8 -548 -10 -692 l-4 -263 1519 0 1518 0 2 163
c1 89 3 236 5 327 2 91 6 341 10 555 3 215 8 487 10 605 2 118 7 373 10 565
11 646 23 1135 40 1685 15 458 38 857 51 903 8 26 35 15 129 -53 74 -54 107
-81 255 -210 30 -27 93 -81 140 -120 47 -40 101 -87 120 -104 20 -17 78 -67
130 -111 52 -44 97 -82 100 -85 4 -4 199 -170 295 -252 113 -95 319 -270 430
-366 11 -10 49 -42 85 -72 35 -30 69 -59 76 -65 15 -14 61 -53 629 -540 l510
-436 64 68 c340 363 485 543 646 803 136 220 199 398 220 620 3 36 8 81 10
100 5 40 13 179 20 330 6 136 19 510 30 880 3 107 8 256 10 330 2 74 7 221 10
325 3 105 7 251 10 325 12 337 19 565 31 965 3 121 7 235 9 254 3 38 6 34
-175 201 -57 52 -108 100 -114 106 -6 5 -38 34 -71 63 -33 30 -76 68 -95 85
-19 17 -64 56 -100 86 -36 30 -67 57 -70 60 -16 17 -208 166 -280 217 -99 70
-127 86 -134 75 -7 -12 -15 -101 -21 -257 -3 -77 -7 -194 -10 -260 -3 -66 -7
-214 -10 -330 -3 -115 -7 -273 -10 -350 -2 -77 -7 -257 -10 -400 -3 -143 -7
-354 -10 -470 -3 -115 -7 -313 -10 -440 -26 -1155 -47 -1690 -65 -1709 -15
-16 -136 71 -414 296 -94 76 -180 147 -191 156 -11 9 -63 53 -115 97 -130 109
-254 213 -460 388 -96 82 -197 168 -225 192 -27 23 -104 88 -170 145 -66 56
-131 112 -145 124 -14 11 -54 46 -90 76 -36 30 -76 65 -90 77 -302 259 -732
607 -811 658 -9 6 -36 23 -60 39 -24 17 -71 41 -103 54 -68 28 -109 25 -177
-10 -175 -92 -537 -633 -722 -1080 -24 -57 -55 -177 -61 -233 -17 -161 -36
-508 -61 -1110 -12 -292 -30 -915 -40 -1430 -4 -159 -8 -364 -10 -455 -2 -91
-6 -304 -10 -475 -10 -464 -13 -566 -18 -571 -5 -5 -122 -6 -599 -5 l-278 1 5
228 c3 125 7 346 10 492 7 371 22 1076 30 1445 8 325 20 743 30 1005 3 69 7
186 10 260 3 74 7 176 10 225 3 50 7 135 10 190 5 97 7 135 20 295 12 147 66
348 146 540 213 515 586 1018 1029 1386 98 81 333 243 425 293 22 12 76 42
120 67 250 139 609 293 748 320 155 29 196 19 235 -61 50 -102 65 -211 66
-475 0 -163 -10 -426 -19 -495 -2 -16 -7 -68 -10 -115 -3 -47 -8 -105 -10
-130 -3 -25 -7 -72 -10 -106 l-5 -60 42 -35 c23 -18 60 -50 83 -70 22 -20 114
-100 205 -179 91 -78 179 -154 195 -169 197 -175 544 -441 576 -441 13 0 28
34 34 77 3 21 8 49 10 63 5 28 15 180 21 315 2 50 6 761 8 1582 l4 1492 -260
-2 c-143 -1 -260 -3 -261 -3z"/>
<path d="M8057 6341 c-36 -95 -43 -199 -51 -731 -8 -447 -17 -932 -21 -995 -6
-128 -17 -292 -20 -315 -2 -14 -6 -56 -10 -95 -3 -38 -12 -119 -21 -180 -16
-119 -18 -130 -35 -220 -6 -33 -13 -71 -15 -85 -3 -14 -10 -43 -16 -65 -5 -22
-12 -48 -14 -59 -12 -62 -76 -262 -116 -365 -199 -502 -609 -1048 -1055 -1406
-224 -179 -500 -343 -738 -440 -49 -20 -99 -40 -110 -45 -34 -16 -327 -127
-392 -149 -81 -27 -141 -32 -181 -15 -57 24 -83 111 -96 329 -4 50 -8 124 -11
165 -3 41 -7 122 -10 180 -3 58 -8 137 -10 175 -3 39 -7 104 -10 145 -2 41 -7
107 -10 145 -2 39 -7 104 -9 145 -19 293 -14 261 -55 300 -21 19 -62 55 -91
80 -29 25 -58 50 -64 55 -6 6 -58 50 -116 100 -58 49 -107 92 -110 95 -3 3
-32 27 -65 54 -33 27 -64 54 -70 60 -11 12 -116 96 -215 172 -73 56 -171 123
-212 143 -58 29 -72 -17 -94 -299 -3 -36 -8 -762 -11 -1614 l-5 -1548 538 5
c297 3 550 7 564 10 14 3 57 8 97 12 92 8 135 13 203 25 30 5 69 12 85 14 49
7 174 35 270 61 554 151 1242 509 1674 869 527 441 907 943 1196 1581 169 375
283 727 319 995 3 19 8 51 10 72 3 20 8 69 11 110 3 40 8 92 10 116 17 162 24
708 11 847 -17 191 -40 252 -201 530 -32 55 -66 114 -75 130 -15 25 -69 117
-105 177 -5 9 -31 52 -57 95 -26 43 -70 114 -97 158 -28 44 -58 93 -67 110
-37 66 -260 402 -280 422 -7 7 -15 13 -17 13 -3 0 -16 -31 -30 -69z"/>
</g>
</svg>
